<mxfile host="65bd71144e">
    <diagram id="osh-Vv4zWN5SnvF0ckwK" name="Page-1">
        <mxGraphModel dx="1070" dy="1859" grid="1" gridSize="10" guides="1" tooltips="1" connect="1" arrows="1" fold="1" page="1" pageScale="1" pageWidth="850" pageHeight="1100" math="0" shadow="0">
            <root>
                <mxCell id="0"/>
                <mxCell id="1" parent="0"/>
                <mxCell id="2" value="oss-r8.4_cpu_5m" style="shape=table;startSize=30;container=1;collapsible=0;childLayout=tableLayout;fontStyle=1;align=center;" parent="1" vertex="1">
                    <mxGeometry x="100" y="140" width="230" height="100" as="geometry"/>
                </mxCell>
                <mxCell id="3" value="" style="shape=tableRow;horizontal=0;startSize=0;swimlaneHead=0;swimlaneBody=0;top=0;left=0;bottom=0;right=0;collapsible=0;dropTarget=0;fillColor=none;points=[[0,0.5],[1,0.5]];portConstraint=eastwest;" parent="2" vertex="1">
                    <mxGeometry y="30" width="230" height="23" as="geometry"/>
                </mxCell>
                <mxCell id="4" value="avg_cpu_load" style="shape=partialRectangle;html=1;whiteSpace=wrap;connectable=0;fillColor=none;top=0;left=0;bottom=0;right=0;overflow=hidden;align=left;" parent="3" vertex="1">
                    <mxGeometry width="90" height="23" as="geometry">
                        <mxRectangle width="90" height="23" as="alternateBounds"/>
                    </mxGeometry>
                </mxCell>
                <mxCell id="5" value="float" style="shape=partialRectangle;html=1;whiteSpace=wrap;connectable=0;fillColor=none;top=0;left=0;bottom=0;right=0;overflow=hidden;align=left;" parent="3" vertex="1">
                    <mxGeometry x="90" width="50" height="23" as="geometry">
                        <mxRectangle width="50" height="23" as="alternateBounds"/>
                    </mxGeometry>
                </mxCell>
                <mxCell id="6" value="&lt;span style=&quot;&quot;&gt;Average ...&lt;/span&gt;" style="shape=partialRectangle;html=1;whiteSpace=wrap;connectable=0;fillColor=none;top=0;left=0;bottom=0;right=0;overflow=hidden;align=left;" parent="3" vertex="1">
                    <mxGeometry x="140" width="90" height="23" as="geometry">
                        <mxRectangle width="90" height="23" as="alternateBounds"/>
                    </mxGeometry>
                </mxCell>
                <mxCell id="7" value="" style="shape=tableRow;horizontal=0;startSize=0;swimlaneHead=0;swimlaneBody=0;top=0;left=0;bottom=0;right=0;collapsible=0;dropTarget=0;fillColor=none;points=[[0,0.5],[1,0.5]];portConstraint=eastwest;" parent="2" vertex="1">
                    <mxGeometry y="53" width="230" height="24" as="geometry"/>
                </mxCell>
                <mxCell id="8" value="max_cpu_load" style="shape=partialRectangle;html=1;whiteSpace=wrap;connectable=0;fillColor=none;top=0;left=0;bottom=0;right=0;overflow=hidden;align=left;" parent="7" vertex="1">
                    <mxGeometry width="90" height="24" as="geometry">
                        <mxRectangle width="90" height="24" as="alternateBounds"/>
                    </mxGeometry>
                </mxCell>
                <mxCell id="9" value="float" style="shape=partialRectangle;html=1;whiteSpace=wrap;connectable=0;fillColor=none;top=0;left=0;bottom=0;right=0;overflow=hidden;align=left;" parent="7" vertex="1">
                    <mxGeometry x="90" width="50" height="24" as="geometry">
                        <mxRectangle width="50" height="24" as="alternateBounds"/>
                    </mxGeometry>
                </mxCell>
                <mxCell id="10" value="&lt;span style=&quot;&quot;&gt;Max CPU ...&lt;/span&gt;" style="shape=partialRectangle;html=1;whiteSpace=wrap;connectable=0;fillColor=none;top=0;left=0;bottom=0;right=0;overflow=hidden;align=left;" parent="7" vertex="1">
                    <mxGeometry x="140" width="90" height="24" as="geometry">
                        <mxRectangle width="90" height="24" as="alternateBounds"/>
                    </mxGeometry>
                </mxCell>
                <mxCell id="11" value="" style="shape=tableRow;horizontal=0;startSize=0;swimlaneHead=0;swimlaneBody=0;top=0;left=0;bottom=0;right=0;collapsible=0;dropTarget=0;fillColor=none;points=[[0,0.5],[1,0.5]];portConstraint=eastwest;" parent="2" vertex="1">
                    <mxGeometry y="77" width="230" height="23" as="geometry"/>
                </mxCell>
                <mxCell id="12" value="process_count" style="shape=partialRectangle;html=1;whiteSpace=wrap;connectable=0;fillColor=none;top=0;left=0;bottom=0;right=0;overflow=hidden;align=left;" parent="11" vertex="1">
                    <mxGeometry width="90" height="23" as="geometry">
                        <mxRectangle width="90" height="23" as="alternateBounds"/>
                    </mxGeometry>
                </mxCell>
                <mxCell id="13" value="bigint" style="shape=partialRectangle;html=1;whiteSpace=wrap;connectable=0;fillColor=#ffe6cc;top=0;left=0;bottom=0;right=0;overflow=hidden;align=left;strokeColor=#d79b00;" parent="11" vertex="1">
                    <mxGeometry x="90" width="50" height="23" as="geometry">
                        <mxRectangle width="50" height="23" as="alternateBounds"/>
                    </mxGeometry>
                </mxCell>
                <mxCell id="14" value="&lt;span style=&quot;color: rgb(0, 0, 0); font-family: Helvetica; font-size: 12px; font-style: normal; font-variant-ligatures: normal; font-variant-caps: normal; font-weight: 400; letter-spacing: normal; orphans: 2; text-indent: 0px; text-transform: none; widows: 2; word-spacing: 0px; -webkit-text-stroke-width: 0px; background-color: rgb(251, 251, 251); text-decoration-thickness: initial; text-decoration-style: initial; text-decoration-color: initial; float: none; display: inline !important;&quot;&gt;Number of ...&lt;/span&gt;" style="shape=partialRectangle;html=1;whiteSpace=wrap;connectable=0;fillColor=none;top=0;left=0;bottom=0;right=0;overflow=hidden;align=left;" parent="11" vertex="1">
                    <mxGeometry x="140" width="90" height="23" as="geometry">
                        <mxRectangle width="90" height="23" as="alternateBounds"/>
                    </mxGeometry>
                </mxCell>
                <mxCell id="15" value="oss-r9.0_cpu_5m" style="shape=table;startSize=30;container=1;collapsible=0;childLayout=tableLayout;fontStyle=1;align=center;" parent="1" vertex="1">
                    <mxGeometry x="410" y="140" width="230" height="123" as="geometry"/>
                </mxCell>
                <mxCell id="16" value="" style="shape=tableRow;horizontal=0;startSize=0;swimlaneHead=0;swimlaneBody=0;top=0;left=0;bottom=0;right=0;collapsible=0;dropTarget=0;fillColor=none;points=[[0,0.5],[1,0.5]];portConstraint=eastwest;" parent="15" vertex="1">
                    <mxGeometry y="30" width="230" height="23" as="geometry"/>
                </mxCell>
                <mxCell id="17" value="avg_cpu_load" style="shape=partialRectangle;html=1;whiteSpace=wrap;connectable=0;fillColor=none;top=0;left=0;bottom=0;right=0;overflow=hidden;align=left;" parent="16" vertex="1">
                    <mxGeometry width="102" height="23" as="geometry">
                        <mxRectangle width="102" height="23" as="alternateBounds"/>
                    </mxGeometry>
                </mxCell>
                <mxCell id="18" value="float" style="shape=partialRectangle;html=1;whiteSpace=wrap;connectable=0;fillColor=none;top=0;left=0;bottom=0;right=0;overflow=hidden;align=left;" parent="16" vertex="1">
                    <mxGeometry x="102" width="51" height="23" as="geometry">
                        <mxRectangle width="51" height="23" as="alternateBounds"/>
                    </mxGeometry>
                </mxCell>
                <mxCell id="19" value="&lt;span style=&quot;&quot;&gt;Average ...&lt;/span&gt;" style="shape=partialRectangle;html=1;whiteSpace=wrap;connectable=0;fillColor=none;top=0;left=0;bottom=0;right=0;overflow=hidden;align=left;" parent="16" vertex="1">
                    <mxGeometry x="153" width="77" height="23" as="geometry">
                        <mxRectangle width="77" height="23" as="alternateBounds"/>
                    </mxGeometry>
                </mxCell>
                <mxCell id="20" value="" style="shape=tableRow;horizontal=0;startSize=0;swimlaneHead=0;swimlaneBody=0;top=0;left=0;bottom=0;right=0;collapsible=0;dropTarget=0;fillColor=none;points=[[0,0.5],[1,0.5]];portConstraint=eastwest;" parent="15" vertex="1">
                    <mxGeometry y="53" width="230" height="24" as="geometry"/>
                </mxCell>
                <mxCell id="21" value="max_cpu_load" style="shape=partialRectangle;html=1;whiteSpace=wrap;connectable=0;fillColor=none;top=0;left=0;bottom=0;right=0;overflow=hidden;align=left;" parent="20" vertex="1">
                    <mxGeometry width="102" height="24" as="geometry">
                        <mxRectangle width="102" height="24" as="alternateBounds"/>
                    </mxGeometry>
                </mxCell>
                <mxCell id="22" value="float" style="shape=partialRectangle;html=1;whiteSpace=wrap;connectable=0;fillColor=none;top=0;left=0;bottom=0;right=0;overflow=hidden;align=left;" parent="20" vertex="1">
                    <mxGeometry x="102" width="51" height="24" as="geometry">
                        <mxRectangle width="51" height="24" as="alternateBounds"/>
                    </mxGeometry>
                </mxCell>
                <mxCell id="23" value="&lt;span style=&quot;&quot;&gt;Max CPU ...&lt;/span&gt;" style="shape=partialRectangle;html=1;whiteSpace=wrap;connectable=0;fillColor=none;top=0;left=0;bottom=0;right=0;overflow=hidden;align=left;" parent="20" vertex="1">
                    <mxGeometry x="153" width="77" height="24" as="geometry">
                        <mxRectangle width="77" height="24" as="alternateBounds"/>
                    </mxGeometry>
                </mxCell>
                <mxCell id="24" value="" style="shape=tableRow;horizontal=0;startSize=0;swimlaneHead=0;swimlaneBody=0;top=0;left=0;bottom=0;right=0;collapsible=0;dropTarget=0;fillColor=none;points=[[0,0.5],[1,0.5]];portConstraint=eastwest;" parent="15" vertex="1">
                    <mxGeometry y="77" width="230" height="23" as="geometry"/>
                </mxCell>
                <mxCell id="25" value="process_count" style="shape=partialRectangle;html=1;whiteSpace=wrap;connectable=0;fillColor=none;top=0;left=0;bottom=0;right=0;overflow=hidden;align=left;" parent="24" vertex="1">
                    <mxGeometry width="102" height="23" as="geometry">
                        <mxRectangle width="102" height="23" as="alternateBounds"/>
                    </mxGeometry>
                </mxCell>
                <mxCell id="26" value="integer" style="shape=partialRectangle;html=1;whiteSpace=wrap;connectable=0;fillColor=#ffe6cc;top=0;left=0;bottom=0;right=0;overflow=hidden;align=left;strokeColor=#d79b00;" parent="24" vertex="1">
                    <mxGeometry x="102" width="51" height="23" as="geometry">
                        <mxRectangle width="51" height="23" as="alternateBounds"/>
                    </mxGeometry>
                </mxCell>
                <mxCell id="27" value="&lt;span style=&quot;&quot;&gt;Number of ...&lt;/span&gt;" style="shape=partialRectangle;html=1;whiteSpace=wrap;connectable=0;fillColor=none;top=0;left=0;bottom=0;right=0;overflow=hidden;align=left;" parent="24" vertex="1">
                    <mxGeometry x="153" width="77" height="23" as="geometry">
                        <mxRectangle width="77" height="23" as="alternateBounds"/>
                    </mxGeometry>
                </mxCell>
                <mxCell id="44" style="shape=tableRow;horizontal=0;startSize=0;swimlaneHead=0;swimlaneBody=0;top=0;left=0;bottom=0;right=0;collapsible=0;dropTarget=0;fillColor=none;points=[[0,0.5],[1,0.5]];portConstraint=eastwest;" vertex="1" parent="15">
                    <mxGeometry y="100" width="230" height="23" as="geometry"/>
                </mxCell>
                <mxCell id="45" value="iowait" style="shape=partialRectangle;html=1;whiteSpace=wrap;connectable=0;fillColor=#d5e8d4;top=0;left=0;bottom=0;right=0;overflow=hidden;align=left;labelBackgroundColor=none;strokeColor=#82b366;" vertex="1" parent="44">
                    <mxGeometry width="102" height="23" as="geometry">
                        <mxRectangle width="102" height="23" as="alternateBounds"/>
                    </mxGeometry>
                </mxCell>
                <mxCell id="46" value="float" style="shape=partialRectangle;html=1;whiteSpace=wrap;connectable=0;fillColor=#d5e8d4;top=0;left=0;bottom=0;right=0;overflow=hidden;align=left;labelBackgroundColor=none;strokeColor=#82b366;" vertex="1" parent="44">
                    <mxGeometry x="102" width="51" height="23" as="geometry">
                        <mxRectangle width="51" height="23" as="alternateBounds"/>
                    </mxGeometry>
                </mxCell>
                <mxCell id="47" value="&lt;span style=&quot;&quot;&gt;Amount of ...&lt;/span&gt;" style="shape=partialRectangle;html=1;whiteSpace=wrap;connectable=0;fillColor=#d5e8d4;top=0;left=0;bottom=0;right=0;overflow=hidden;align=left;labelBackgroundColor=none;strokeColor=#82b366;" vertex="1" parent="44">
                    <mxGeometry x="153" width="77" height="23" as="geometry">
                        <mxRectangle width="77" height="23" as="alternateBounds"/>
                    </mxGeometry>
                </mxCell>
                <mxCell id="43" style="edgeStyle=none;html=1;" edge="1" parent="1" source="28" target="2">
                    <mxGeometry relative="1" as="geometry"/>
                </mxCell>
                <mxCell id="28" value="oss_cpu_5m" style="shape=table;startSize=30;container=1;collapsible=0;childLayout=tableLayout;fontStyle=1;align=center;" vertex="1" parent="1">
                    <mxGeometry x="250" y="-30" width="230" height="123" as="geometry"/>
                </mxCell>
                <mxCell id="29" value="" style="shape=tableRow;horizontal=0;startSize=0;swimlaneHead=0;swimlaneBody=0;top=0;left=0;bottom=0;right=0;collapsible=0;dropTarget=0;fillColor=none;points=[[0,0.5],[1,0.5]];portConstraint=eastwest;" vertex="1" parent="28">
                    <mxGeometry y="30" width="230" height="23" as="geometry"/>
                </mxCell>
                <mxCell id="30" value="avg_cpu_load" style="shape=partialRectangle;html=1;whiteSpace=wrap;connectable=0;fillColor=none;top=0;left=0;bottom=0;right=0;overflow=hidden;align=left;" vertex="1" parent="29">
                    <mxGeometry width="102" height="23" as="geometry">
                        <mxRectangle width="102" height="23" as="alternateBounds"/>
                    </mxGeometry>
                </mxCell>
                <mxCell id="31" value="float" style="shape=partialRectangle;html=1;whiteSpace=wrap;connectable=0;fillColor=none;top=0;left=0;bottom=0;right=0;overflow=hidden;align=left;" vertex="1" parent="29">
                    <mxGeometry x="102" width="51" height="23" as="geometry">
                        <mxRectangle width="51" height="23" as="alternateBounds"/>
                    </mxGeometry>
                </mxCell>
                <mxCell id="32" value="Average ..." style="shape=partialRectangle;html=1;whiteSpace=wrap;connectable=0;fillColor=none;top=0;left=0;bottom=0;right=0;overflow=hidden;align=left;" vertex="1" parent="29">
                    <mxGeometry x="153" width="77" height="23" as="geometry">
                        <mxRectangle width="77" height="23" as="alternateBounds"/>
                    </mxGeometry>
                </mxCell>
                <mxCell id="33" value="" style="shape=tableRow;horizontal=0;startSize=0;swimlaneHead=0;swimlaneBody=0;top=0;left=0;bottom=0;right=0;collapsible=0;dropTarget=0;fillColor=none;points=[[0,0.5],[1,0.5]];portConstraint=eastwest;" vertex="1" parent="28">
                    <mxGeometry y="53" width="230" height="24" as="geometry"/>
                </mxCell>
                <mxCell id="34" value="max_cpu_load" style="shape=partialRectangle;html=1;whiteSpace=wrap;connectable=0;fillColor=none;top=0;left=0;bottom=0;right=0;overflow=hidden;align=left;" vertex="1" parent="33">
                    <mxGeometry width="102" height="24" as="geometry">
                        <mxRectangle width="102" height="24" as="alternateBounds"/>
                    </mxGeometry>
                </mxCell>
                <mxCell id="35" value="float" style="shape=partialRectangle;html=1;whiteSpace=wrap;connectable=0;fillColor=none;top=0;left=0;bottom=0;right=0;overflow=hidden;align=left;" vertex="1" parent="33">
                    <mxGeometry x="102" width="51" height="24" as="geometry">
                        <mxRectangle width="51" height="24" as="alternateBounds"/>
                    </mxGeometry>
                </mxCell>
                <mxCell id="36" value="Max CPU ..." style="shape=partialRectangle;html=1;whiteSpace=wrap;connectable=0;fillColor=none;top=0;left=0;bottom=0;right=0;overflow=hidden;align=left;" vertex="1" parent="33">
                    <mxGeometry x="153" width="77" height="24" as="geometry">
                        <mxRectangle width="77" height="24" as="alternateBounds"/>
                    </mxGeometry>
                </mxCell>
                <mxCell id="37" value="" style="shape=tableRow;horizontal=0;startSize=0;swimlaneHead=0;swimlaneBody=0;top=0;left=0;bottom=0;right=0;collapsible=0;dropTarget=0;fillColor=none;points=[[0,0.5],[1,0.5]];portConstraint=eastwest;" vertex="1" parent="28">
                    <mxGeometry y="77" width="230" height="23" as="geometry"/>
                </mxCell>
                <mxCell id="38" value="process_count" style="shape=partialRectangle;html=1;whiteSpace=wrap;connectable=0;fillColor=none;top=0;left=0;bottom=0;right=0;overflow=hidden;align=left;" vertex="1" parent="37">
                    <mxGeometry width="102" height="23" as="geometry">
                        <mxRectangle width="102" height="23" as="alternateBounds"/>
                    </mxGeometry>
                </mxCell>
                <mxCell id="39" value="bigint" style="shape=partialRectangle;html=1;whiteSpace=wrap;connectable=0;fillColor=#ffe6cc;top=0;left=0;bottom=0;right=0;overflow=hidden;align=left;strokeColor=#d79b00;" vertex="1" parent="37">
                    <mxGeometry x="102" width="51" height="23" as="geometry">
                        <mxRectangle width="51" height="23" as="alternateBounds"/>
                    </mxGeometry>
                </mxCell>
                <mxCell id="40" value="Number of ..." style="shape=partialRectangle;html=1;whiteSpace=wrap;connectable=0;fillColor=none;top=0;left=0;bottom=0;right=0;overflow=hidden;align=left;" vertex="1" parent="37">
                    <mxGeometry x="153" width="77" height="23" as="geometry">
                        <mxRectangle width="77" height="23" as="alternateBounds"/>
                    </mxGeometry>
                </mxCell>
                <mxCell id="48" style="shape=tableRow;horizontal=0;startSize=0;swimlaneHead=0;swimlaneBody=0;top=0;left=0;bottom=0;right=0;collapsible=0;dropTarget=0;fillColor=none;points=[[0,0.5],[1,0.5]];portConstraint=eastwest;" vertex="1" parent="28">
                    <mxGeometry y="100" width="230" height="23" as="geometry"/>
                </mxCell>
                <mxCell id="49" value="iowait" style="shape=partialRectangle;html=1;whiteSpace=wrap;connectable=0;fillColor=#d5e8d4;top=0;left=0;bottom=0;right=0;overflow=hidden;align=left;strokeColor=#82b366;" vertex="1" parent="48">
                    <mxGeometry width="102" height="23" as="geometry">
                        <mxRectangle width="102" height="23" as="alternateBounds"/>
                    </mxGeometry>
                </mxCell>
                <mxCell id="50" value="float" style="shape=partialRectangle;html=1;whiteSpace=wrap;connectable=0;fillColor=#d5e8d4;top=0;left=0;bottom=0;right=0;overflow=hidden;align=left;strokeColor=#82b366;" vertex="1" parent="48">
                    <mxGeometry x="102" width="51" height="23" as="geometry">
                        <mxRectangle width="51" height="23" as="alternateBounds"/>
                    </mxGeometry>
                </mxCell>
                <mxCell id="51" value="Amount of ..." style="shape=partialRectangle;html=1;whiteSpace=wrap;connectable=0;fillColor=#d5e8d4;top=0;left=0;bottom=0;right=0;overflow=hidden;align=left;strokeColor=#82b366;" vertex="1" parent="48">
                    <mxGeometry x="153" width="77" height="23" as="geometry">
                        <mxRectangle width="77" height="23" as="alternateBounds"/>
                    </mxGeometry>
                </mxCell>
                <mxCell id="42" style="edgeStyle=none;html=1;" edge="1" parent="1" source="28" target="15">
                    <mxGeometry relative="1" as="geometry"/>
                </mxCell>
            </root>
        </mxGraphModel>
    </diagram>
</mxfile>